<svg version="1" xmlns="http://www.w3.org/2000/svg" width="1365.333" height="1365.333" viewBox="0 0 1024.000000 1024.000000"><path d="M573.7 1.7c-.4.6-16.4 40.1-35.5 87.9C419.9 384.3 379.7 484.7 379.3 486c-.4 1.4 5.6 1.9 45.4 4.3 25.2 1.5 46.6 2.7 47.6 2.7 1.6 0 1.7 8.5 1.7 164.5V822l-120.1.2-120.1.3-.1 61.5c0 42.5.3 64.3 1.2 70.5 1.5 11.5 5 29.5 6.2 31.8.9 1.6 12.2 1.7 215.4 1.7H671V738.5c0-198.9.3-249.5 1.3-249.5 2.2 0 94.2-9.2 94.5-9.5C767.1 479.2 576.6 5 575 2.1c-.4-.8-1-1-1.3-.4zm155 459.9c-.3.3-1.2.4-1.9.1-.8-.3-.5-.6.6-.6 1.1-.1 1.7.2 1.3.5zm-10 1c-.3.3-1.2.4-1.9.1-.8-.3-.5-.6.6-.6 1.1-.1 1.7.2 1.3.5zm-41 4c-.3.3-1.2.4-1.9.1-.8-.3-.5-.6.6-.6 1.1-.1 1.7.2 1.3.5zm-263.4 1.1c-.7.2-2.1.2-3 0-1-.3-.4-.5 1.2-.5 1.7 0 2.4.2 1.8.5zm253.4-.1c-.3.3-1.2.4-1.9.1-.8-.3-.5-.6.6-.6 1.1-.1 1.7.2 1.3.5zm-237.4 1.1c-.7.2-1.9.2-2.5 0-.7-.3-.2-.5 1.2-.5s1.9.2 1.3.5zm227.4-.1c-.3.3-1.2.4-1.9.1-.8-.3-.5-.6.6-.6 1.1-.1 1.7.2 1.3.5zm-211.4 1.1c-.7.2-1.9.2-2.5 0-.7-.3-.2-.5 1.2-.5s1.9.2 1.3.5zm17 1c-.7.2-2.1.2-3 0-1-.3-.4-.5 1.2-.5 1.7 0 2.4.2 1.8.5zm16 1c-.7.2-1.9.2-2.5 0-.7-.3-.2-.5 1.2-.5s1.9.2 1.3.5zm16 1c-.7.2-1.9.2-2.5 0-.7-.3-.2-.5 1.2-.5s1.9.2 1.3.5zM256.7 863.2c-.2 2.4-.4.7-.4-3.7s.2-6.3.4-4.3c.2 2.1.2 5.7 0 8zm-1 47.5c-.2 2.1-.4.4-.4-3.7 0-4.1.2-5.8.4-3.8.2 2.1.2 5.5 0 7.5zm0 19.5c-.2 1.8-.4.6-.4-2.7 0-3.3.2-4.8.4-3.3s.2 4.2 0 6zm1 18c-.3.7-.5.2-.5-1.2s.2-1.9.5-1.3c.2.7.2 1.9 0 2.5z"/></svg>